# xmcd
#
# Track frame offsets: 
#        150
#        18557
#        34122
#        46753
#        62806
#        78883
#        90224
#        111791
#        123254
#        139441
#        152827
#        166108
#        181788
#        198304
#        218584
#        229159
#
# Disc length: 3278 seconds
#
# Revision: 0
# Processed by: cddbd v1.5.2PL0 Copyright (c) Steve Scherf et al.
# Submitted via: ExactAudioCopy v0.95b4
#
DISCID=c50ccc10
DTITLE=Roger Glover and The Guilty Party - If Life Was Easy
DYEAR=2011
DGENRE=Rock
TTITLE0=Don't Look Now (Everything Has Changed)
TTITLE1=The Dream I Had
TTITLE2=Moonlight
TTITLE3=The Car Won't Start
TTITLE4=Boy Of Tricks
TTITLE5=If Life Was Easy
TTITLE6=Stand Together
TTITLE7=Welcome To The Moon
TTITLE8=Set Your Imagination Free
TTITLE9=When Life Get To The Bone
TTITLE10=When The Day Is Done
TTITLE11=Get Away (Can't Let You)
TTITLE12=Staring Into Space
TTITLE13=The Ghost Of Your Smile
TTITLE14=Cruel World
TTITLE15=Feel Like A King
EXTD=
EXTT0=
EXTT1=
EXTT2=
EXTT3=
EXTT4=
EXTT5=
EXTT6=
EXTT7=
EXTT8=
EXTT9=
EXTT10=
EXTT11=
EXTT12=
EXTT13=
EXTT14=
EXTT15=
PLAYORDER=
